<?xml version="1.0" encoding="UTF-8" standalone="no"?>
<!-- Created with Inkscape (http://www.inkscape.org/) -->

<svg
   xmlns:dc="http://purl.org/dc/elements/1.1/"
   xmlns:cc="http://creativecommons.org/ns#"
   xmlns:rdf="http://www.w3.org/1999/02/22-rdf-syntax-ns#"
   xmlns:svg="http://www.w3.org/2000/svg"
   xmlns="http://www.w3.org/2000/svg"
   xmlns:sodipodi="http://sodipodi.sourceforge.net/DTD/sodipodi-0.dtd"
   xmlns:inkscape="http://www.inkscape.org/namespaces/inkscape"
   width="565.97083mm"
   height="475.2392mm"
   viewBox="0 0 565.97083 475.2392"
   version="1.1"
   id="svg8"
   inkscape:version="0.92.1 r15371"
   sodipodi:docname="inspect_default.svg">
  <defs
     id="defs2" />
  <sodipodi:namedview
     id="base"
     pagecolor="#ffffff"
     bordercolor="#666666"
     borderopacity="1.0"
     inkscape:pageopacity="0.0"
     inkscape:pageshadow="2"
     inkscape:zoom="0.12374369"
     inkscape:cx="-1339.2506"
     inkscape:cy="575.67445"
     inkscape:document-units="mm"
     inkscape:current-layer="layer1"
     showgrid="false"
     inkscape:window-width="1600"
     inkscape:window-height="836"
     inkscape:window-x="1920"
     inkscape:window-y="27"
     inkscape:window-maximized="1"
     fit-margin-top="0"
     fit-margin-left="0"
     fit-margin-right="0"
     fit-margin-bottom="0" />
  <metadata
     id="metadata5">
    <rdf:RDF>
      <cc:Work
         rdf:about="">
        <dc:format>image/svg+xml</dc:format>
        <dc:type
           rdf:resource="http://purl.org/dc/dcmitype/StillImage" />
        <dc:title></dc:title>
      </cc:Work>
    </rdf:RDF>
  </metadata>
  <g
     inkscape:label="Camada 1"
     inkscape:groupmode="layer"
     id="layer1"
     transform="translate(-174.08952,111.21645)">
    <rect
       style="opacity:0.52999998;fill:#ff0000;stroke:#ffffff;stroke-width:4;stroke-miterlimit:4;stroke-dasharray:none"
       id="rect4496"
       width="561.97083"
       height="471.2392"
       x="-540.60266"
       y="-98.910606"
       inkscape:export-xdpi="96"
       inkscape:export-ydpi="96" />
    <rect
       style="opacity:0.52999998;fill:#000000;stroke:#ffffff;stroke-width:4;stroke-miterlimit:4;stroke-dasharray:none"
       id="rect4496-3"
       width="561.97083"
       height="471.2392"
       x="176.08952"
       y="-109.21645"
       inkscape:export-xdpi="96"
       inkscape:export-ydpi="96" />
    <path
       inkscape:connector-curvature="0"
       id="path4487"
       d="m -182.37734,298.29354 c -16.67764,-0.29611 -31.64786,-0.79212 -33.26717,-1.10222 -12.40154,-2.37504 -25.25863,-17.22639 -31.85039,-36.79063 -2.09458,-6.21671 -4.62189,-17.11473 -5.66503,-24.42825 l -0.91095,-6.38664 0.4795,-93.75975 c 0.26371,-51.567869 0.65758,-95.617186 0.87525,-97.887376 2.41702,-25.20869 13.30958,-48.51334 27.28771,-58.38203 7.66936,-5.41464 4.62428,-5.1339 52.9845,-4.88513 50.50493,0.25964 63.24491,0.8383 67.39651,3.06045 13.064335,6.99271 23.520752,23.22294029 28.825764,44.7428 0.909277,3.68854 2.056768,9.43269 2.549955,12.76478 0.893508,6.03662 0.895779,6.40182 0.635826,101.759116 -0.251096,92.10212 -0.292661,95.89953 -1.105358,100.98666 -2.09741,13.12888 -5.34257,24.17289 -10.069155,34.26766 -4.65856,9.94947 -12.37095,18.7841 -20.411402,23.38144 -6.26596,3.58273 -12.91997,3.8103 -77.75556,2.65912 z m 13.61031,-53.53638 c 5.97914,-9.39048 56.3042,-92.35058 60.60389,-99.9046 1.94774,-3.42194 3.54209,-6.85624 3.543,-7.63178 0.003,-2.098 -9.18183,-18.02881 -50.439,-87.490186 -9.70733,-16.34346 -16.03833,-26.36674 -17.54546,-27.77808 -1.11082,-1.04021 -1.30337,-1.03093 -1.93163,0.0931 -0.61076,1.09273 -0.71604,4.49801 -0.84366,27.28942 l -0.14585,26.040892 -15.82291,0.249876 c -11.38403,0.179797 -15.96428,0.503215 -16.32686,1.152885 -0.57698,1.033809 -1.38624,69.956733 -1.16875,99.538963 0.11422,15.54054 0.21236,17.60544 0.89434,18.82571 0.70173,1.25562 2.07799,1.39105 16.40223,1.61409 l 15.63623,0.24337 -0.0905,26.26621 c -0.0498,14.44642 0.0657,26.69844 0.2567,27.22671 0.191,0.5283 0.87978,0.9605 1.53063,0.9605 0.87495,0 2.2947,-1.74541 5.44765,-6.69723 z m -239.55195,52.80856 c -16.38309,-2.91977 -31.24009,-25.92596 -36.58187,-56.64733 l -1.17419,-6.75293 -0.13661,-96.30751 -0.1366,-96.307496 1.12755,-7.04185 c 3.0051,-18.7674 9.75894,-36.2028797 17.74717,-45.81549 3.56122,-4.28537 9.7347,-9.4829 13.78876,-11.60892 3.10175,-1.62663 4.21554,-1.71123 30.47703,-2.31541 14.9917,-0.3449 39.52356,-0.35089 54.51526,-0.0145 l 27.25763,0.6138 3.86328,2.08686 c 7.34881,3.96967 13.709,10.74647 19.12816,20.3811603 5.43829,9.66864 9.45213,22.1793597 11.76814,36.6800597 l 1.12611,7.05058 -0.13953,96.298766 -0.13952,96.29879 -1.18979,6.85914 c -5.22152,30.1024 -19.41669,52.32278 -36.07526,56.47038 -3.74044,0.93128 -100.03395,0.99598 -105.22577,0.0706 z m 64.65766,-57.25308 c 0.14828,-5.91665 0.29313,-17.93245 0.32194,-26.70178 0.0287,-8.76934 0.10059,-15.99194 0.15964,-16.05025 0.0591,-0.0584 7.19025,-0.31766 15.84717,-0.57631 8.65693,-0.25876 15.9006,-0.75822 16.09703,-1.11018 0.51217,-0.91763 0.6789,-116.64904 0.17008,-118.053374 -0.6037,-1.666216 -5.32325,-2.212077 -19.66592,-2.274525 l -12.55568,-0.05463 V 62.93623 c 0,-6.905452 -0.12735,-18.852176 -0.28314,-26.548286 -0.25239,-12.47255 -0.36857,-14.07477 -1.06926,-14.74604 -1.64974,-1.58049 -0.03,-4.08467 -34.27567,52.992496 -30.12483,50.20902 -35.62679,59.76442 -35.63209,61.88347 -0.005,2.2105 9.59067,18.69705 46.14881,79.285 18.89838,31.32035 21.8505,35.79819 23.39434,35.48503 1.07312,-0.21782 1.07314,-0.21782 1.3427,-10.9752 z"
       style="fill:#000000;stroke-width:0.57431465" />
    <path
       inkscape:connector-curvature="0"
       id="path4487-3"
       d="m 534.31485,287.9877 c -16.67764,-0.29612 -31.64786,-0.79214 -33.26717,-1.10223 -12.40154,-2.37503 -25.25864,-17.22639 -31.8504,-36.79063 -2.09458,-6.2167 -4.62189,-17.11473 -5.66503,-24.42825 l -0.91095,-6.38664 0.4795,-93.75975 c 0.26371,-51.567865 0.65758,-95.617184 0.87525,-97.887374 2.41702,-25.2086859 13.30958,-48.513336 27.28772,-58.38203 7.66936,-5.414642 4.62428,-5.133902 52.98451,-4.885132 50.50494,0.25964 63.24491,0.838302 67.39649,3.060451 13.06436,6.992715 23.52077,23.2229451 28.82577,44.742805 0.9093,3.68854 2.05677,9.43269 2.54995,12.76478 0.89353,6.036616 0.8958,6.401816 0.63585,101.75911 -0.25112,92.10212 -0.29268,95.89953 -1.10538,100.98666 -2.0974,13.12889 -5.34257,24.17289 -10.06914,34.26767 -4.65857,9.94947 -12.37096,18.7841 -20.41141,23.38144 -6.26594,3.58273 -12.91998,3.81029 -77.75556,2.65912 z m 13.61032,-53.5364 c 5.97913,-9.39047 56.3042,-92.35057 60.60389,-99.90459 1.94774,-3.42194 3.54209,-6.85623 3.54299,-7.63178 0.003,-2.098 -9.18184,-18.02881 -50.43901,-87.490185 C 551.92572,23.08129 545.59472,13.05801 544.0876,11.64667 c -1.11083,-1.04021 -1.30337,-1.03093 -1.93165,0.0931 -0.61076,1.09273 -0.71604,4.49801 -0.84365,27.289415 l -0.14583,26.04089 -15.82293,0.24988 c -11.38403,0.17979 -15.96428,0.50321 -16.32686,1.15288 -0.57698,1.03381 -1.38624,69.956735 -1.16875,99.538965 0.11422,15.54054 0.21236,17.60544 0.89434,18.82571 0.70173,1.25562 2.07799,1.39105 16.40223,1.61409 l 15.63623,0.24337 -0.0905,26.26621 c -0.0498,14.44642 0.0657,26.69844 0.2567,27.22671 0.191,0.52829 0.87977,0.96049 1.53062,0.96049 0.87495,0 2.2947,-1.7454 5.44766,-6.69721 z M 308.3732,287.25988 c -16.38309,-2.91978 -31.24009,-25.92596 -36.58187,-56.64734 l -1.17419,-6.75293 -0.13661,-96.30751 -0.1366,-96.307494 1.12755,-7.041846 c 3.0051,-18.7673999 9.75894,-36.20288 17.74717,-45.81549 3.56122,-4.28537 9.7347,-9.482904 13.78876,-11.608924 3.10175,-1.62663 4.21554,-1.711232 30.47703,-2.315412 14.9917,-0.3449 39.52356,-0.35089 54.51526,-0.0145 l 27.25763,0.6138 3.86328,2.086862 c 7.34881,3.969674 13.709,10.746474 19.12816,20.381164 5.43829,9.6686401 9.45213,22.1793601 11.76814,36.68006 l 1.12611,7.050576 -0.13953,96.298774 -0.13952,96.29878 -1.18979,6.85913 c -5.22152,30.10241 -19.41669,52.32278 -36.07526,56.47039 -3.74044,0.93128 -100.03395,0.99597 -105.22577,0.0706 z m 64.65766,-57.25308 c 0.14828,-5.91666 0.29313,-17.93246 0.32194,-26.70179 0.0287,-8.76934 0.10059,-15.99194 0.15964,-16.05025 0.0591,-0.0584 7.19025,-0.31766 15.84717,-0.57631 8.65693,-0.25876 15.9006,-0.75822 16.09703,-1.11018 0.51217,-0.91763 0.6789,-116.649045 0.17008,-118.053375 -0.6037,-1.66622 -5.32325,-2.21208 -19.66592,-2.27453 l -12.55568,-0.0546 v -12.55536 c 0,-6.90545 -0.12735,-18.852169 -0.28314,-26.548275 -0.25239,-12.47255 -0.36857,-14.07477 -1.06926,-14.74604 -1.64974,-1.5804899 -0.03,-4.0846699 -34.27567,52.992485 -30.12483,50.209025 -35.62679,59.764425 -35.63209,61.883475 -0.005,2.2105 9.59067,18.69705 46.14881,79.285 18.89838,31.32034 21.8505,35.7982 23.39434,35.48504 1.07312,-0.21783 1.07314,-0.21783 1.3427,-10.97521 z"
       style="fill:#000000;stroke-width:0.57431465" />
  </g>
</svg>
