<?xml version="1.0" encoding="UTF-8" standalone="no"?>
<!-- Created with Inkscape (http://www.inkscape.org/) -->

<svg
   xmlns:dc="http://purl.org/dc/elements/1.1/"
   xmlns:cc="http://creativecommons.org/ns#"
   xmlns:rdf="http://www.w3.org/1999/02/22-rdf-syntax-ns#"
   xmlns:svg="http://www.w3.org/2000/svg"
   xmlns="http://www.w3.org/2000/svg"
   xmlns:sodipodi="http://sodipodi.sourceforge.net/DTD/sodipodi-0.dtd"
   xmlns:inkscape="http://www.inkscape.org/namespaces/inkscape"
   width="565.97083mm"
   height="475.2392mm"
   viewBox="0 0 565.97083 475.2392"
   version="1.1"
   id="svg8"
   inkscape:version="0.92.1 r15371"
   sodipodi:docname="lab4.svg">
  <defs
     id="defs2" />
  <sodipodi:namedview
     id="base"
     pagecolor="#ffffff"
     bordercolor="#666666"
     borderopacity="1.0"
     inkscape:pageopacity="0.0"
     inkscape:pageshadow="2"
     inkscape:zoom="0.12374369"
     inkscape:cx="3156.0022"
     inkscape:cy="-425.9261"
     inkscape:document-units="mm"
     inkscape:current-layer="layer1"
     showgrid="false"
     inkscape:window-width="1920"
     inkscape:window-height="1043"
     inkscape:window-x="0"
     inkscape:window-y="0"
     inkscape:window-maximized="1"
     fit-margin-top="0"
     fit-margin-left="0"
     fit-margin-right="0"
     fit-margin-bottom="0" />
  <metadata
     id="metadata5">
    <rdf:RDF>
      <cc:Work
         rdf:about="">
        <dc:format>image/svg+xml</dc:format>
        <dc:type
           rdf:resource="http://purl.org/dc/dcmitype/StillImage" />
        <dc:title></dc:title>
      </cc:Work>
    </rdf:RDF>
  </metadata>
  <g
     inkscape:label="Camada 1"
     inkscape:groupmode="layer"
     id="layer1"
     transform="translate(544.88507,100.91061)">
    <rect
       style="opacity:0.52999998;fill:#ff0000;stroke:#ffffff;stroke-width:4;stroke-miterlimit:4;stroke-dasharray:none"
       id="rect4496"
       width="561.97083"
       height="471.2392"
       x="-542.88507"
       y="-98.910606"
       inkscape:export-xdpi="96"
       inkscape:export-ydpi="96" />
    <rect
       style="opacity:0.52999998;fill:#000000;stroke:#ffffff;stroke-width:4;stroke-miterlimit:4;stroke-dasharray:none"
       id="rect4496-3"
       width="561.97083"
       height="471.2392"
       x="96.105133"
       y="-78.600487"
       inkscape:export-xdpi="96"
       inkscape:export-ydpi="96" />
    <path
       style="fill:#000000;stroke-width:0.65364206"
       d="m -257.35579,293.28599 c -19.68981,-5.6059 -26.19167,-31.52993 -11.49093,-45.81633 5.34734,-5.19662 10.85698,-7.31131 20.52574,-7.87813 17.17802,-1.00703 29.5805,-4.19442 42.7671,-10.99094 33.9646,-17.50573 55.3182,-52.99459 55.3182,-91.93672 0,-46.324692 -30.22923,-86.978186 -73.79231,-99.238906 -16.92966,-4.76481 -36.99255,-4.66107 -53.66378,0.27748 -21.09221,6.24819 -39.67779,19.279873 -52.65937,36.923263 -6.30649,8.571211 -7.63283,12.637301 -5.14966,15.786991 1.14776,1.45583 1.80013,1.58748 9.51881,1.92077 7.14114,0.30836 8.79477,0.59848 11.96281,2.09881 13.4647,6.376692 17.67969,24.250432 8.59663,36.454072 -1.21095,1.62698 -3.5572,3.87921 -5.21389,5.00496 -6.17292,4.19461 -5.37541,4.13685 -54.32725,3.93486 l -44.37043,-0.18309 -3.9433,-1.86956 c -4.93445,-2.33948 -9.32255,-6.86257 -11.67433,-12.03344 l -1.80664,-3.97228 V 75.093427 28.419074 l 2.01539,-4.30331 c 4.38965,-9.37288 12.48442,-14.3361496 22.47737,-13.78192 8.44481,0.46836 15.9983,5.73193 19.59108,13.65183 1.49552,3.29671 1.753,4.87124 2.04585,12.51082 0.20011,5.21994 0.63211,9.04407 1.07272,9.49582 1.19492,1.22513 3.67888,-0.91667 9.56936,-8.25121 21.91646,-27.28931 50.71801,-45.9682997 83.66884,-54.2627 15.21904,-3.83094 34.76467,-5.29289 50.25832,-3.75914 64.58065,6.39295 118.58945,53.81573 134.52433,118.119957 3.511789,14.171609 4.494199,22.658519 4.494199,38.824649 0,16.16613 -0.98241,24.65303 -4.494199,38.82465 -12.87235,51.9456 -51.09696,94.00051 -100.64381,110.72885 -19.51841,6.58992 -45.27067,9.88901 -55.17685,7.06862 z"
       id="path4548"
       inkscape:connector-curvature="0" />
  </g>
</svg>
