<?xml version="1.0" encoding="UTF-8" standalone="no"?>
<!-- Created with Inkscape (http://www.inkscape.org/) -->

<svg
   xmlns:dc="http://purl.org/dc/elements/1.1/"
   xmlns:cc="http://creativecommons.org/ns#"
   xmlns:rdf="http://www.w3.org/1999/02/22-rdf-syntax-ns#"
   xmlns:svg="http://www.w3.org/2000/svg"
   xmlns="http://www.w3.org/2000/svg"
   xmlns:sodipodi="http://sodipodi.sourceforge.net/DTD/sodipodi-0.dtd"
   xmlns:inkscape="http://www.inkscape.org/namespaces/inkscape"
   width="565.97083mm"
   height="475.2392mm"
   viewBox="0 0 565.97083 475.2392"
   version="1.1"
   id="svg8"
   inkscape:version="0.92.1 r15371"
   sodipodi:docname="selectraster_default.svg">
  <defs
     id="defs2" />
  <sodipodi:namedview
     id="base"
     pagecolor="#ffffff"
     bordercolor="#666666"
     borderopacity="1.0"
     inkscape:pageopacity="0.0"
     inkscape:pageshadow="2"
     inkscape:zoom="0.12374369"
     inkscape:cx="749.00233"
     inkscape:cy="780.28175"
     inkscape:document-units="mm"
     inkscape:current-layer="layer1"
     showgrid="false"
     inkscape:window-width="1600"
     inkscape:window-height="836"
     inkscape:window-x="1920"
     inkscape:window-y="27"
     inkscape:window-maximized="1"
     fit-margin-top="0"
     fit-margin-left="0"
     fit-margin-right="0"
     fit-margin-bottom="0" />
  <metadata
     id="metadata5">
    <rdf:RDF>
      <cc:Work
         rdf:about="">
        <dc:format>image/svg+xml</dc:format>
        <dc:type
           rdf:resource="http://purl.org/dc/dcmitype/StillImage" />
        <dc:title></dc:title>
      </cc:Work>
    </rdf:RDF>
  </metadata>
  <g
     inkscape:label="Camada 1"
     inkscape:groupmode="layer"
     id="layer1"
     transform="translate(-91.96698,82.73864)">
    <rect
       style="opacity:0.52999998;fill:#ff0000;stroke:#ffffff;stroke-width:4;stroke-miterlimit:4;stroke-dasharray:none"
       id="rect4496"
       width="561.97083"
       height="471.2392"
       x="-542.88507"
       y="-98.910606"
       inkscape:export-xdpi="96"
       inkscape:export-ydpi="96" />
    <rect
       style="opacity:0.52999998;fill:#000000;stroke:#ffffff;stroke-width:4;stroke-miterlimit:4;stroke-dasharray:none"
       id="rect4496-3"
       width="561.97083"
       height="471.2392"
       x="93.96698"
       y="-80.73864"
       inkscape:export-xdpi="96"
       inkscape:export-ydpi="96" />
    <path
       style="fill:#ffffff;stroke-width:0.71023661"
       d="m 214.47778,312.78205 c -8.10942,-1.53279 -14.54565,-4.73601 -21.29617,-10.59876 -6.86528,-5.96242 -10.44733,-11.46613 -12.2382,-18.80361 -1.58983,-6.51379 -1.58983,-250.430616 0,-256.944406 3.45077,-14.13834 17.60495,-26.43460956492 33.87689,-29.4301296 7.61127,-1.40117 312.74513,-1.38408 320.36293,0.0179 16.22424,2.98600004 30.32503,15.2641996 33.77815,29.4121896 1.58983,6.51379 1.58983,250.430616 0,256.944416 -1.80409,7.39163 -5.34815,12.84858 -12.22155,18.81807 -6.87341,5.96947 -13.15667,9.04745 -21.66758,10.61428 -7.25286,1.33523 -313.52322,1.30658 -320.59447,-0.03 z m 305.00441,-35.84524 c 4.44427,-1.8316 5.93928,-5.95197 3.78459,-10.43068 -0.99525,-2.06871 -39.52959,-50.38427 -47.96941,-60.14553 -4.60974,-5.33151 -9.36603,-7.76842 -15.16216,-7.76842 -6.15972,0 -8.61288,1.41393 -21.16512,12.19887 -6.72475,5.77794 -13.23186,10.76974 -15.10739,11.58936 -4.94134,2.15937 -11.05497,2.04829 -16.00336,-0.29076 -4.46583,-2.11097 -1.58703,0.9911 -47.94993,-51.66863 -17.64777,-20.04463 -33.4655,-37.52649 -35.15051,-38.8486 -5.34593,-4.19457 -11.46259,-3.93025 -16.2512,0.70228 -1.5421,1.49184 -17.18353,27.67744 -40.11859,67.16327 -41.23413,70.99019 -40.33541,69.17588 -36.59669,73.88045 0.98316,1.23714 2.98255,2.80085 4.44308,3.47492 2.5566,1.17991 7.83241,1.22556 141.63829,1.22556 127.05638,0 139.20808,-0.0929 141.6084,-1.08209 z M 441.93997,126.09052 c 11.43397,-2.34077 22.28576,-9.62063 27.69106,-18.57638 6.65101,-11.019716 6.84905,-22.422636 0.58507,-33.688106 -10.1895,-18.32531 -35.77653,-25.83453 -57.15793,-16.77458 -6.71687,2.84615 -15.65648,10.61011 -18.9336,16.44364 -6.63955,11.81892 -5.81085,25.60353 2.18513,36.347916 10.01608,13.45884 27.9901,19.85882 45.63027,16.24751 z"
       id="path4499"
       inkscape:connector-curvature="0" />
    <path
       style="fill:#000000;stroke-width:0.71023661"
       d="m -422.37427,294.61007 c -8.10942,-1.53278 -14.54565,-4.73601 -21.29617,-10.59875 -6.86528,-5.96242 -10.44733,-11.46612 -12.2382,-18.8036 -1.58983,-6.5138 -1.58983,-250.43063 0,-256.9444196 3.45077,-14.1383395 17.60495,-26.4346094 33.87689,-29.4301294 7.61126,-1.40117 312.74513,-1.38408 320.36293,0.0179 16.224222,2.986 30.325032,15.2641999 33.778142,29.4121894 1.58983,6.5137906 1.58983,250.4306296 0,256.9444096 -1.80409,7.39164 -5.34813,12.84859 -12.22156,18.81809 -6.87339,5.96945 -13.15667,9.04743 -21.667572,10.61426 -7.25287,1.33525 -313.52322,1.3066 -320.59446,-0.03 z m 305.00441,-35.84522 c 4.44426,-1.8316 5.93927,-5.95198 3.78458,-10.43069 -0.99523,-2.0687 -39.52957,-50.38427 -47.96941,-60.14553 -4.60973,-5.33151 -9.36601,-7.76842 -15.16216,-7.76842 -6.15971,0 -8.61287,1.41393 -21.16512,12.19887 -6.72474,5.77794 -13.23186,10.76974 -15.10738,11.58936 -4.94135,2.15937 -11.05498,2.04829 -16.00336,-0.29076 -4.46583,-2.11097 -1.58704,0.9911 -47.94994,-51.66863 -17.64777,-20.04463 -33.4655,-37.52649 -35.15051,-38.8486 -5.34593,-4.19457 -11.46259,-3.93025 -16.2512,0.70228 -1.5421,1.49184 -17.18353,27.67744 -40.11859,67.16327 -41.23413,70.99018 -40.33541,69.17588 -36.59669,73.88044 0.98316,1.23716 2.98255,2.80085 4.44308,3.47493 2.5566,1.17991 7.83241,1.22555 141.63829,1.22555 127.05638,0 139.20809,-0.0929 141.60841,-1.08207 z m -77.54222,-150.8463 c 11.43396,-2.34077 22.28577,-9.620632 27.69105,-18.576381 6.65101,-11.019718 6.84905,-22.422639 0.58507,-33.688107 -10.1895,-18.325312 -35.77652,-25.834531 -57.15792,-16.774581 -6.71688,2.84615 -15.65648,10.610109 -18.93361,16.44364 -6.63955,11.818921 -5.81085,25.603531 2.18513,36.347916 10.01608,13.458843 27.99011,19.858823 45.63028,16.247513 z"
       id="path4499-3"
       inkscape:connector-curvature="0" />
  </g>
</svg>
